<svg xmlns="http://www.w3.org/2000/svg" xmlns:xlink="http://www.w3.org/1999/xlink" version="1.1" xml:space="preserve" fill="#f04a0e" class="u-svg-content" viewBox="0 0 160 140" x="0px" y="0px" id="svg-596d" style="enable-background:new 0 0 160 140;"><path d="M38.1,14.8c8.8-0.7,18.1,1.2,28.4,0.3c17-1.5,33.3-8.6,49.7-13c6.9-1.9,14.3-3,21.3-1.2c8.6,2.3,13.5,8.9,16.3,17.1
	c8,23.1,6.9,40.9,4.4,65.3c-1.4,13.7-5.5,30.3-20,35c-11.4,3.7-23.9-0.3-35.7,1.8c-20.8,3.8-43.5,25-65.2,18.8
	c-42.8-12.4-48.2-87.2-19.2-115C24.8,17.6,31.3,15.4,38.1,14.8L38.1,14.8z"></path></svg>